<svg width="107" height="25" viewBox="0 0 107 25" fill="none" xmlns="http://www.w3.org/2000/svg">
<path d="M8.78125 11.75C9.26042 12 9.73958 12.2708 10.2188 12.5625C10.7188 12.8542 11.1771 13.1354 11.5938 13.4062C12.0104 13.6562 12.3542 13.8958 12.625 14.125C12.9167 14.3333 13.1042 14.5 13.1875 14.625C13.2917 14.7917 13.3438 15.0521 13.3438 15.4062C13.3438 15.7396 13.3125 16.1146 13.25 16.5312C13.2083 16.9271 13.1354 17.3229 13.0312 17.7188C12.9271 18.0938 12.8125 18.3958 12.6875 18.625C12.5417 18.9167 12.2083 19.2917 11.6875 19.75C11.1875 20.2083 10.625 20.6667 10 21.125C9.375 21.5833 8.76042 21.9896 8.15625 22.3438C7.57292 22.6979 7.125 22.9167 6.8125 23C6.58333 23.0625 6.23958 23.125 5.78125 23.1875C5.34375 23.25 4.88542 23.3021 4.40625 23.3438C3.92708 23.3854 3.48958 23.4167 3.09375 23.4375C2.71875 23.4375 2.48958 23.4167 2.40625 23.375C2.23958 23.2708 2.09375 23.1146 1.96875 22.9062C1.86458 22.6979 1.8125 22.4271 1.8125 22.0938C1.85417 21.3646 1.9375 20.8646 2.0625 20.5938C2.10417 20.5312 2.15625 20.5 2.21875 20.5C2.28125 20.4792 2.38542 20.4688 2.53125 20.4688C2.67708 20.4688 2.86458 20.4688 3.09375 20.4688C3.32292 20.4688 3.625 20.4583 4 20.4375C3.89583 19.375 3.80208 18.3646 3.71875 17.4062C3.63542 16.4479 3.5625 15.6042 3.5 14.875C3.41667 14.0208 3.35417 13.2188 3.3125 12.4688C3.27083 11.7396 3.20833 10.9271 3.125 10.0312C3.0625 9.26042 2.98958 8.36458 2.90625 7.34375C2.82292 6.32292 2.72917 5.21875 2.625 4.03125C2.4375 4.03125 2.21875 4.03125 1.96875 4.03125C1.71875 4.03125 1.46875 4.03125 1.21875 4.03125C0.989583 4.01042 0.791667 3.98958 0.625 3.96875C0.4375 3.92708 0.322917 3.875 0.28125 3.8125C0.197917 3.6875 0.135417 3.45833 0.09375 3.125C0.0520833 2.77083 0.03125 2.42708 0.03125 2.09375C0.03125 1.73958 0.09375 1.39583 0.21875 1.0625C0.34375 0.708333 0.489583 0.479167 0.65625 0.375C0.697917 0.354167 0.864583 0.354167 1.15625 0.375C1.44792 0.375 1.80208 0.40625 2.21875 0.46875C2.63542 0.510417 3.08333 0.572917 3.5625 0.65625C4.0625 0.71875 4.53125 0.791667 4.96875 0.875C5.40625 0.9375 5.79167 1 6.125 1.0625C6.45833 1.125 6.6875 1.16667 6.8125 1.1875C7.02083 1.22917 7.41667 1.34375 8 1.53125C8.60417 1.69792 9.25 1.89583 9.9375 2.125C10.625 2.35417 11.2812 2.61458 11.9062 2.90625C12.5312 3.17708 12.9688 3.44792 13.2188 3.71875C13.3229 3.82292 13.4167 4.11458 13.5 4.59375C13.6042 5.07292 13.6771 5.60417 13.7188 6.1875C13.7812 6.77083 13.8021 7.32292 13.7812 7.84375C13.7812 8.34375 13.7292 8.67708 13.625 8.84375C13.5417 8.96875 13.25 9.1875 12.75 9.5C12.25 9.8125 11.6979 10.1354 11.0938 10.4688C10.4062 10.8438 9.63542 11.2708 8.78125 11.75ZM6.40625 11.125C6.67708 11 7.04167 10.75 7.5 10.375C7.97917 10 8.44792 9.58333 8.90625 9.125C9.38542 8.64583 9.79167 8.16667 10.125 7.6875C10.4792 7.1875 10.6562 6.76042 10.6562 6.40625C10.6562 6.30208 10.5417 6.16667 10.3125 6C10.1042 5.83333 9.8125 5.66667 9.4375 5.5C9.0625 5.33333 8.61458 5.16667 8.09375 5C7.59375 4.8125 7.05208 4.64583 6.46875 4.5L6.40625 11.125ZM6.375 20.0938C6.95833 19.9688 7.51042 19.7708 8.03125 19.5C8.55208 19.2292 9.01042 18.9375 9.40625 18.625C9.80208 18.2917 10.1146 17.9583 10.3438 17.625C10.5729 17.2917 10.6875 16.9896 10.6875 16.7188C10.6875 16.4479 10.5104 16.1458 10.1562 15.8125C9.82292 15.4792 9.41667 15.1458 8.9375 14.8125C8.47917 14.4792 8.01042 14.1771 7.53125 13.9062C7.05208 13.6354 6.67708 13.4375 6.40625 13.3125L6.375 20.0938ZM17.8125 23.8125C17.6667 23.8542 17.5 23.8021 17.3125 23.6562C17.125 23.5104 16.9375 23.3333 16.75 23.125C16.5833 22.8958 16.4375 22.6562 16.3125 22.4062C16.1875 22.1562 16.1042 21.9479 16.0625 21.7812C15.9167 19.9479 15.7917 18.3125 15.6875 16.875C15.6042 15.4167 15.5312 14.125 15.4688 13C15.4062 11.875 15.3542 10.9062 15.3125 10.0938C15.2917 9.26042 15.2812 8.55208 15.2812 7.96875C15.2604 6.61458 15.2812 5.67708 15.3438 5.15625C15.4062 4.78125 15.5729 4.40625 15.8438 4.03125C16.1354 3.65625 16.4375 3.33333 16.75 3.0625C17.0833 2.79167 17.3854 2.58333 17.6562 2.4375C17.9479 2.29167 18.1354 2.25 18.2188 2.3125C18.3021 2.375 18.3646 2.72917 18.4062 3.375C18.4479 4 18.4792 4.82292 18.5 5.84375C18.5208 6.86458 18.5208 8.01042 18.5 9.28125C18.5 10.5521 18.4792 11.8542 18.4375 13.1875C18.4167 14.5208 18.3854 15.8229 18.3438 17.0938C18.3021 18.3646 18.25 19.5 18.1875 20.5C18.125 21.4792 18.0625 22.2708 18 22.875C17.9375 23.4792 17.875 23.7917 17.8125 23.8125ZM29 7.5625C29.125 7.70833 29.2396 7.86458 29.3438 8.03125C29.4479 8.17708 29.5417 8.38542 29.625 8.65625C29.7083 8.90625 29.7708 9.23958 29.8125 9.65625C29.875 10.0729 29.9062 10.6146 29.9062 11.2812C29.9062 12.3438 29.875 13.4167 29.8125 14.5C29.7708 15.5625 29.7292 16.5 29.6875 17.3125C29.6667 18.0417 29.6458 18.7188 29.625 19.3438C29.6042 19.9688 29.5833 20.5208 29.5625 21C29.5417 21.4583 29.5104 21.8229 29.4688 22.0938C29.4479 22.3646 29.4271 22.5104 29.4062 22.5312C29.3229 22.5938 29.1875 22.5729 29 22.4688C28.8333 22.3438 28.6458 22.1875 28.4375 22C28.25 21.8125 28.0729 21.6146 27.9062 21.4062C27.7396 21.1979 27.6354 21.0312 27.5938 20.9062C27.5938 20.8021 27.5625 20.5 27.5 20C27 20.2917 26.4479 20.5 25.8438 20.625C25.2396 20.7292 24.6354 20.7708 24.0312 20.75C23.4479 20.7083 22.9062 20.5938 22.4062 20.4062C21.9062 20.2188 21.5312 19.9688 21.2812 19.6562C21.1771 19.5312 21.0833 19.3438 21 19.0938C20.9375 18.8438 20.875 18.5625 20.8125 18.25C20.7708 17.9167 20.7292 17.5729 20.6875 17.2188C20.6458 16.8438 20.6146 16.5 20.5938 16.1875C20.5521 15.375 20.6562 14.6771 20.9062 14.0938C21.1562 13.4896 21.6146 13.0417 22.2812 12.75C22.5729 12.625 22.9583 12.5625 23.4375 12.5625C23.9375 12.5417 24.4271 12.5625 24.9062 12.625C25.4062 12.6667 25.8542 12.7292 26.25 12.8125C26.6458 12.875 26.8958 12.9271 27 12.9688C26.9167 11.9062 26.8542 10.9896 26.8125 10.2188C26.7708 9.42708 26.6875 8.91667 26.5625 8.6875C26.4583 8.54167 26.3333 8.39583 26.1875 8.25C26.0625 8.14583 25.8958 8.03125 25.6875 7.90625C25.4792 7.78125 25.2292 7.6875 24.9375 7.625C24.7083 7.58333 24.5 7.67708 24.3125 7.90625C24.1458 8.11458 23.9896 8.48958 23.8438 9.03125C23.7188 9.55208 23.6458 10.3542 23.625 11.4375C22.8958 11.4583 22.3333 11.4583 21.9375 11.4375C21.5625 11.3958 21.2812 11.3542 21.0938 11.3125C20.8646 11.2708 20.7292 11.2188 20.6875 11.1562C20.6458 11.0729 20.6667 10.7708 20.75 10.25C20.8333 9.70833 20.9479 9.125 21.0938 8.5C21.2604 7.875 21.4479 7.28125 21.6562 6.71875C21.8854 6.15625 22.125 5.80208 22.375 5.65625C22.875 5.36458 23.4688 5.26042 24.1562 5.34375C24.8646 5.42708 25.5521 5.60417 26.2188 5.875C26.8854 6.14583 27.4792 6.44792 28 6.78125C28.5208 7.11458 28.8542 7.375 29 7.5625ZM27.0625 16.6875C27.0625 16.5833 27.0729 16.4479 27.0938 16.2812C27.1146 16.0938 27.125 15.9062 27.125 15.7188C27.125 15.5312 27.1146 15.3542 27.0938 15.1875C27.0938 15.0208 27.0729 14.8958 27.0312 14.8125C26.9688 14.6875 26.7812 14.5833 26.4688 14.5C26.1771 14.4167 25.8438 14.3646 25.4688 14.3438C25.0938 14.3021 24.7396 14.2917 24.4062 14.3125C24.0729 14.3125 23.8438 14.3542 23.7188 14.4375C23.5521 14.5417 23.4271 14.6875 23.3438 14.875C23.2812 15.0625 23.2396 15.3542 23.2188 15.75C23.2188 15.9375 23.2292 16.1354 23.25 16.3438C23.2708 16.5521 23.2917 16.7604 23.3125 16.9688C23.3542 17.1562 23.3958 17.3229 23.4375 17.4688C23.5 17.6146 23.5625 17.7083 23.625 17.75C23.7708 17.8542 24.0208 17.9479 24.375 18.0312C24.75 18.0938 25.125 18.1146 25.5 18.0938C25.875 18.0521 26.2188 17.9271 26.5312 17.7188C26.8438 17.5104 27.0208 17.1667 27.0625 16.6875ZM38.6875 6.96875C38.8542 7.07292 39.0104 7.28125 39.1562 7.59375C39.3229 7.88542 39.4688 8.22917 39.5938 8.625C39.7396 9 39.8542 9.40625 39.9375 9.84375C40.0417 10.2812 40.125 10.6875 40.1875 11.0625C40.2708 11.4375 40.3229 11.7604 40.3438 12.0312C40.3646 12.2812 40.3646 12.4375 40.3438 12.5C40.3021 12.5833 40.1771 12.6667 39.9688 12.75C39.7812 12.8333 39.5 12.9271 39.125 13.0312C38.75 13.1354 38.2292 13.25 37.5625 13.375C37.5208 12.2292 37.4375 11.3646 37.3125 10.7812C37.1875 10.1771 37.0521 9.75 36.9062 9.5C36.7396 9.20833 36.5625 9.0625 36.375 9.0625C36.1875 9.14583 36.0208 9.25 35.875 9.375C35.7292 9.47917 35.6042 9.59375 35.5 9.71875C35.375 9.86458 35.2604 10.0208 35.1562 10.1875C35.1146 10.25 35.0729 10.3958 35.0312 10.625C34.9896 10.8542 34.9479 11.1979 34.9062 11.6562C34.9062 11.8021 34.8958 12.1042 34.875 12.5625C34.875 13.0208 34.8646 13.5521 34.8438 14.1562C34.8438 14.7604 34.8333 15.3958 34.8125 16.0625C34.8125 16.7292 34.8021 17.3542 34.7812 17.9375C34.7812 18.5 34.7708 18.9792 34.75 19.375C34.75 19.7708 34.7396 20 34.7188 20.0625C34.6771 20.1667 34.5729 20.3125 34.4062 20.5C34.2396 20.6875 34.0521 20.8646 33.8438 21.0312C33.6354 21.1771 33.4375 21.3021 33.25 21.4062C33.0625 21.4896 32.9375 21.4792 32.875 21.375C32.8125 21.3125 32.75 21.0417 32.6875 20.5625C32.625 20.0833 32.5521 19.5 32.4688 18.8125C32.4062 18.1042 32.3333 17.3333 32.25 16.5C32.1667 15.6667 32.0938 14.8646 32.0312 14.0938C31.9688 13.3229 31.9167 12.6354 31.875 12.0312C31.8333 11.4062 31.8021 10.9583 31.7812 10.6875C31.7604 10.2917 31.7396 9.85417 31.7188 9.375C31.6979 8.89583 31.6771 8.44792 31.6562 8.03125C31.6562 7.59375 31.6562 7.21875 31.6562 6.90625C31.6771 6.57292 31.7188 6.375 31.7812 6.3125C31.8229 6.25 31.9583 6.23958 32.1875 6.28125C32.4375 6.30208 32.6979 6.36458 32.9688 6.46875C33.2604 6.55208 33.5312 6.66667 33.7812 6.8125C34.0312 6.95833 34.1979 7.09375 34.2812 7.21875C34.3438 7.32292 34.4062 7.47917 34.4688 7.6875C34.8646 7.47917 35.2396 7.29167 35.5938 7.125C35.9688 6.9375 36.3229 6.80208 36.6562 6.71875C37.0104 6.63542 37.3542 6.61458 37.6875 6.65625C38.0208 6.67708 38.3542 6.78125 38.6875 6.96875ZM43.7812 14.9688C44.1146 14.8438 44.4896 14.7083 44.9062 14.5625C45.3438 14.3958 45.7604 14.25 46.1562 14.125C46.5521 13.9792 46.9062 13.8542 47.2188 13.75C47.5312 13.6458 47.7604 13.5625 47.9062 13.5C47.8854 13.2708 47.8542 13.0104 47.8125 12.7188C47.7917 12.4062 47.7604 12.1146 47.7188 11.8438C47.6771 11.5521 47.625 11.3021 47.5625 11.0938C47.5 10.8854 47.4375 10.7604 47.375 10.7188C47.2083 10.6562 46.9271 10.6042 46.5312 10.5625C46.1562 10.5 45.7604 10.5104 45.3438 10.5938C44.9479 10.6771 44.5833 10.8333 44.25 11.0625C43.9167 11.2917 43.7292 11.6562 43.6875 12.1562C43.6458 12.4896 43.6354 12.9062 43.6562 13.4062C43.6771 13.9062 43.7188 14.4271 43.7812 14.9688ZM50.5625 15.4688C50.5417 15.5104 50.2917 15.5938 49.8125 15.7188C49.3333 15.8438 48.7604 15.9792 48.0938 16.125C47.4271 16.25 46.7188 16.3854 45.9688 16.5312C45.2188 16.6562 44.5729 16.7604 44.0312 16.8438C44.1354 17.6771 44.2604 18.4271 44.4062 19.0938C44.5521 19.7396 44.6771 20.1458 44.7812 20.3125C44.8854 20.4583 45.0208 20.5938 45.1875 20.7188C45.3333 20.8229 45.5104 20.9271 45.7188 21.0312C45.9479 21.1146 46.2188 21.1771 46.5312 21.2188C46.7604 21.2812 46.9792 21.1979 47.1875 20.9688C47.3542 20.7604 47.5 20.3958 47.625 19.875C47.7708 19.3542 47.8438 18.5312 47.8438 17.4062C48.4896 17.3021 48.9896 17.2396 49.3438 17.2188C49.7188 17.1979 49.9896 17.1979 50.1562 17.2188C50.3646 17.2396 50.4896 17.2708 50.5312 17.3125C50.5521 17.375 50.5521 17.5312 50.5312 17.7812C50.5104 18.0312 50.4583 18.3438 50.375 18.7188C50.3125 19.0729 50.2292 19.4688 50.125 19.9062C50.0417 20.3229 49.9375 20.7292 49.8125 21.125C49.6875 21.5 49.5521 21.8438 49.4062 22.1562C49.2604 22.4479 49.1042 22.6562 48.9375 22.7812C48.4375 23.1562 47.8125 23.3438 47.0625 23.3438C46.3125 23.3229 45.5729 23.2188 44.8438 23.0312C44.1146 22.8229 43.4583 22.5833 42.875 22.3125C42.2917 22.0208 41.9271 21.7812 41.7812 21.5938C41.6771 21.4688 41.5833 21.1562 41.5 20.6562C41.4167 20.1354 41.3438 19.5104 41.2812 18.7812C41.2396 18.0521 41.2083 17.25 41.1875 16.375C41.1667 15.5 41.1771 14.6458 41.2188 13.8125C41.2812 12.9792 41.3646 12.2083 41.4688 11.5C41.5938 10.7917 41.7604 10.2188 41.9688 9.78125C42.2812 9.15625 42.7917 8.64583 43.5 8.25C44.2083 7.85417 44.9583 7.58333 45.75 7.4375C46.5417 7.29167 47.2917 7.27083 48 7.375C48.7292 7.47917 49.2708 7.70833 49.625 8.0625C49.8333 8.27083 50.0208 8.6875 50.1875 9.3125C50.3542 9.91667 50.4583 10.6562 50.5 11.5312C50.5 11.6146 50.5104 11.8542 50.5312 12.25C50.5521 12.6458 50.5625 13.0729 50.5625 13.5312C50.5833 13.9688 50.5938 14.3854 50.5938 14.7812C50.5938 15.1771 50.5833 15.4062 50.5625 15.4688ZM67.75 8.625C67.7708 8.85417 67.7292 9.20833 67.625 9.6875C67.5417 10.1667 67.4062 10.6458 67.2188 11.125C67.0521 11.6042 66.8229 12.0208 66.5312 12.375C66.2604 12.7292 65.9479 12.9062 65.5938 12.9062C65.3438 12.9062 65.1354 12.7083 64.9688 12.3125C64.8229 11.9167 64.7083 11.4583 64.625 10.9375C64.5625 10.3958 64.5104 9.86458 64.4688 9.34375C64.4271 8.82292 64.3854 8.45833 64.3438 8.25C64.2812 8.14583 64.1562 8.05208 63.9688 7.96875C63.8021 7.86458 63.6354 7.8125 63.4688 7.8125C63.3021 7.8125 63.1146 7.94792 62.9062 8.21875C62.6979 8.48958 62.4896 8.80208 62.2812 9.15625C62.0938 9.51042 61.9271 9.86458 61.7812 10.2188C61.6562 10.5729 61.6042 10.8333 61.625 11C61.625 11.125 61.7604 11.3438 62.0312 11.6562C62.3021 11.9688 62.6354 12.3438 63.0312 12.7812C63.4479 13.1979 63.8854 13.6562 64.3438 14.1562C64.8229 14.6354 65.2604 15.125 65.6562 15.625C66.0521 16.1042 66.3854 16.5625 66.6562 17C66.9479 17.4375 67.1042 17.8125 67.125 18.125C67.1458 18.5 67.0417 18.9792 66.8125 19.5625C66.6042 20.1458 66.3333 20.7083 66 21.25C65.6667 21.7917 65.3125 22.2604 64.9375 22.6562C64.5625 23.0521 64.2292 23.2604 63.9375 23.2812C63.6458 23.3021 63.2188 23.1458 62.6562 22.8125C62.1146 22.4583 61.5625 22.0521 61 21.5938C60.4583 21.1146 59.9688 20.6458 59.5312 20.1875C59.1146 19.7292 58.875 19.3958 58.8125 19.1875C58.75 19 58.7083 18.75 58.6875 18.4375C58.6875 18.125 58.6979 17.8125 58.7188 17.5C58.7604 17.1875 58.8229 16.9271 58.9062 16.7188C58.9896 16.4896 59.0938 16.375 59.2188 16.375C59.3438 16.375 59.5938 16.5938 59.9688 17.0312C60.3438 17.4479 60.75 17.9271 61.1875 18.4688C61.625 18.9896 62.0521 19.4688 62.4688 19.9062C62.8854 20.3229 63.1875 20.5312 63.375 20.5312C63.4792 20.5312 63.5938 20.4583 63.7188 20.3125C63.8438 20.1458 63.9583 19.9583 64.0625 19.75C64.1667 19.5417 64.25 19.3333 64.3125 19.125C64.3958 18.8958 64.4375 18.7188 64.4375 18.5938C64.4167 18.4062 64.25 18.1354 63.9375 17.7812C63.625 17.4271 63.2292 17.0312 62.75 16.5938C62.2708 16.1562 61.75 15.6979 61.1875 15.2188C60.625 14.7188 60.1042 14.25 59.625 13.8125C59.1458 13.375 58.75 12.9792 58.4375 12.625C58.125 12.2708 57.9583 12 57.9375 11.8125C57.9167 11.625 57.9792 11.3333 58.125 10.9375C58.2708 10.5208 58.4583 10.0729 58.6875 9.59375C58.9167 9.09375 59.1771 8.58333 59.4688 8.0625C59.7812 7.54167 60.0938 7.0625 60.4062 6.625C60.7188 6.1875 61.0208 5.83333 61.3125 5.5625C61.625 5.27083 61.8958 5.125 62.125 5.125C62.5833 5.125 63.125 5.25 63.75 5.5C64.3958 5.75 65.0104 6.0625 65.5938 6.4375C66.1771 6.79167 66.6771 7.16667 67.0938 7.5625C67.5104 7.95833 67.7292 8.3125 67.75 8.625ZM76.2188 9.78125C76.4271 9.90625 76.625 10.1354 76.8125 10.4688C77.0208 10.8021 77.2083 11.1875 77.375 11.625C77.5417 12.0417 77.6771 12.5 77.7812 13C77.8854 13.4792 77.9375 13.9375 77.9375 14.375C77.9375 14.6667 77.8958 15.1042 77.8125 15.6875C77.7292 16.25 77.625 16.875 77.5 17.5625C77.375 18.2292 77.2396 18.9167 77.0938 19.625C76.9479 20.3333 76.8125 20.9792 76.6875 21.5625C76.5625 22.1458 76.4479 22.6354 76.3438 23.0312C76.2396 23.4271 76.1771 23.6458 76.1562 23.6875C76.1146 23.75 75.9896 23.7917 75.7812 23.8125C75.5938 23.8333 75.3854 23.8229 75.1562 23.7812C74.9479 23.7396 74.75 23.6771 74.5625 23.5938C74.375 23.5104 74.2604 23.4062 74.2188 23.2812C74.1979 23.1979 74.1875 22.9375 74.1875 22.5C74.2083 22.0417 74.2292 21.5 74.25 20.875C74.2917 20.25 74.3333 19.5729 74.375 18.8438C74.4375 18.1146 74.4896 17.4375 74.5312 16.8125C74.5729 16.1667 74.6042 15.6146 74.625 15.1562C74.6667 14.6979 74.6875 14.4271 74.6875 14.3438C74.7083 14.0104 74.6771 13.6875 74.5938 13.375C74.5312 13.0417 74.4375 12.7604 74.3125 12.5312C74.2083 12.3021 74.0833 12.125 73.9375 12C73.8125 11.875 73.6875 11.8333 73.5625 11.875C73.375 11.9167 73.1875 11.9688 73 12.0312C72.8333 12.0938 72.6875 12.1458 72.5625 12.1875C72.3958 12.25 72.25 12.3125 72.125 12.375C72.1042 13.9167 72.0729 15.4271 72.0312 16.9062C71.9896 18.3854 71.9375 19.7188 71.875 20.9062C71.8125 22.0729 71.7396 23.0208 71.6562 23.75C71.5938 24.4583 71.5208 24.8229 71.4375 24.8438C71.2708 24.8646 71.0833 24.7917 70.875 24.625C70.6875 24.4583 70.5 24.25 70.3125 24C70.125 23.7708 69.9583 23.5208 69.8125 23.25C69.6875 22.9792 69.6042 22.75 69.5625 22.5625C69.3958 20.5208 69.2604 18.6979 69.1562 17.0938C69.0521 15.4688 68.9688 14.0312 68.9062 12.7812C68.8438 11.5312 68.7917 10.4479 68.75 9.53125C68.7292 8.61458 68.7188 7.83333 68.7188 7.1875C68.6979 5.66667 68.7188 4.61458 68.7812 4.03125C68.8646 3.59375 69.0521 3.17708 69.3438 2.78125C69.6354 2.36458 69.9479 2 70.2812 1.6875C70.6354 1.375 70.9583 1.14583 71.25 1C71.5625 0.833333 71.7708 0.791667 71.875 0.875C71.9375 0.9375 71.9896 1.22917 72.0312 1.75C72.0938 2.25 72.1354 2.92708 72.1562 3.78125C72.1771 4.61458 72.1875 5.58333 72.1875 6.6875C72.1875 7.77083 72.1771 8.91667 72.1562 10.125C72.9896 9.79167 73.7604 9.58333 74.4688 9.5C75.1979 9.41667 75.7812 9.51042 76.2188 9.78125ZM86.3438 6.90625C86.4896 7.03125 86.625 7.27083 86.75 7.625C86.8958 7.97917 87.0208 8.40625 87.125 8.90625C87.2292 9.40625 87.3229 9.94792 87.4062 10.5312C87.4896 11.1146 87.5625 11.6875 87.625 12.25C87.6875 12.8125 87.7292 13.3438 87.75 13.8438C87.7917 14.3229 87.8229 14.7188 87.8438 15.0312C87.8646 15.4062 87.875 15.8021 87.875 16.2188C87.8958 16.6146 87.8958 17 87.875 17.375C87.875 17.7292 87.8542 18.0521 87.8125 18.3438C87.7917 18.6354 87.75 18.8542 87.6875 19C87.5625 19.3125 87.3438 19.5312 87.0312 19.6562C86.7396 19.7604 86.4062 19.8333 86.0312 19.875C85.8438 19.8958 85.5208 19.9062 85.0625 19.9062C84.625 19.8854 84.1458 19.8646 83.625 19.8438C83.125 19.8021 82.6458 19.7604 82.1875 19.7188C81.7292 19.6771 81.3854 19.6354 81.1562 19.5938C80.6979 19.4896 80.3646 19.3542 80.1562 19.1875C79.9688 19.0208 79.7812 18.7812 79.5938 18.4688C79.5312 18.3438 79.4792 18.0312 79.4375 17.5312C79.3958 17.0104 79.3646 16.3958 79.3438 15.6875C79.3438 14.9583 79.3542 14.1771 79.375 13.3438C79.3958 12.5104 79.4271 11.7188 79.4688 10.9688C79.5312 10.2188 79.5938 9.5625 79.6562 9C79.7396 8.4375 79.8438 8.0625 79.9688 7.875C80.1771 7.58333 80.5312 7.3125 81.0312 7.0625C81.5521 6.8125 82.0208 6.61458 82.4375 6.46875C82.6458 6.40625 82.9167 6.36458 83.25 6.34375C83.6042 6.30208 83.9688 6.30208 84.3438 6.34375C84.7396 6.36458 85.1146 6.42708 85.4688 6.53125C85.8229 6.61458 86.1146 6.73958 86.3438 6.90625ZM84.5938 16.5938C84.6354 16.5104 84.6771 16.2604 84.7188 15.8438C84.7812 15.4062 84.8229 14.8854 84.8438 14.2812C84.8854 13.6771 84.9062 13.0312 84.9062 12.3438C84.9271 11.6562 84.9375 11.0208 84.9375 10.4375C84.9375 9.85417 84.9167 9.36458 84.875 8.96875C84.8333 8.55208 84.7812 8.3125 84.7188 8.25C84.6146 8.16667 84.4583 8.13542 84.25 8.15625C84.0625 8.15625 83.8646 8.1875 83.6562 8.25C83.4479 8.29167 83.2604 8.35417 83.0938 8.4375C82.9271 8.5 82.8125 8.5625 82.75 8.625C82.4792 8.85417 82.3333 9.22917 82.3125 9.75C82.3125 9.89583 82.2917 10.3125 82.25 11C82.2292 11.6667 82.2188 12.3958 82.2188 13.1875C82.2188 13.9583 82.2292 14.6771 82.25 15.3438C82.2917 16.0104 82.3646 16.4167 82.4688 16.5625C82.5729 16.7083 82.7188 16.8229 82.9062 16.9062C83.1146 16.9688 83.3229 17 83.5312 17C83.7604 17 83.9688 16.9688 84.1562 16.9062C84.3646 16.8229 84.5104 16.7188 84.5938 16.5938ZM96.2188 7.9375C96.2396 8 96.2396 8.17708 96.2188 8.46875C96.1979 8.73958 96.1562 9.05208 96.0938 9.40625C96.0521 9.73958 96 10.0521 95.9375 10.3438C95.875 10.6146 95.8229 10.7812 95.7812 10.8438C95.5729 10.8646 95.3646 10.875 95.1562 10.875C94.9479 10.8542 94.75 10.8438 94.5625 10.8438H93.9062C93.8854 12.2188 93.8542 13.5833 93.8125 14.9375C93.7708 16.2917 93.7188 17.5104 93.6562 18.5938C93.5938 19.6562 93.5208 20.5208 93.4375 21.1875C93.375 21.8542 93.3125 22.1979 93.25 22.2188C93.1042 22.2396 92.9375 22.1771 92.75 22.0312C92.5625 21.8854 92.375 21.7083 92.1875 21.5C92.0208 21.2708 91.8646 21.0417 91.7188 20.8125C91.5938 20.5625 91.5208 20.3438 91.5 20.1562C91.3958 18.8854 91.3021 17.6771 91.2188 16.5312C91.1354 15.3646 91.0729 14.3333 91.0312 13.4375C90.9479 12.3958 90.8958 11.4271 90.875 10.5312C90.6458 10.5104 90.4167 10.4792 90.1875 10.4375C89.9792 10.3958 89.7604 10.3542 89.5312 10.3125C89.3229 10.2708 89.1042 10.2292 88.875 10.1875C88.8333 10.1458 88.7812 10.0521 88.7188 9.90625C88.6562 9.73958 88.5938 9.5625 88.5312 9.375C88.4896 9.1875 88.4479 9.01042 88.4062 8.84375C88.3646 8.65625 88.3438 8.52083 88.3438 8.4375C88.3438 8.375 88.5729 8.3125 89.0312 8.25C89.5104 8.1875 90.0938 8.13542 90.7812 8.09375C90.7396 6.98958 90.7083 6.03125 90.6875 5.21875C90.6875 4.38542 90.7188 3.82292 90.7812 3.53125C90.8438 3.13542 91.0104 2.76042 91.2812 2.40625C91.5729 2.03125 91.875 1.70833 92.1875 1.4375C92.5208 1.16667 92.8229 0.96875 93.0938 0.84375C93.3854 0.697917 93.5729 0.65625 93.6562 0.71875C93.7188 0.760417 93.7708 0.979167 93.8125 1.375C93.8542 1.75 93.8854 2.26042 93.9062 2.90625C93.9271 3.55208 93.9375 4.3125 93.9375 5.1875C93.9375 6.04167 93.9375 6.94792 93.9375 7.90625C94.5625 7.86458 95.0938 7.85417 95.5312 7.875C95.9688 7.875 96.1979 7.89583 96.2188 7.9375ZM106.375 8.625C106.396 8.85417 106.354 9.20833 106.25 9.6875C106.167 10.1667 106.031 10.6458 105.844 11.125C105.677 11.6042 105.448 12.0208 105.156 12.375C104.885 12.7292 104.573 12.9062 104.219 12.9062C103.969 12.9062 103.76 12.7083 103.594 12.3125C103.448 11.9167 103.333 11.4583 103.25 10.9375C103.188 10.3958 103.135 9.86458 103.094 9.34375C103.052 8.82292 103.01 8.45833 102.969 8.25C102.906 8.14583 102.781 8.05208 102.594 7.96875C102.427 7.86458 102.26 7.8125 102.094 7.8125C101.927 7.8125 101.74 7.94792 101.531 8.21875C101.323 8.48958 101.115 8.80208 100.906 9.15625C100.719 9.51042 100.552 9.86458 100.406 10.2188C100.281 10.5729 100.229 10.8333 100.25 11C100.25 11.125 100.385 11.3438 100.656 11.6562C100.927 11.9688 101.26 12.3438 101.656 12.7812C102.073 13.1979 102.51 13.6562 102.969 14.1562C103.448 14.6354 103.885 15.125 104.281 15.625C104.677 16.1042 105.01 16.5625 105.281 17C105.573 17.4375 105.729 17.8125 105.75 18.125C105.771 18.5 105.667 18.9792 105.438 19.5625C105.229 20.1458 104.958 20.7083 104.625 21.25C104.292 21.7917 103.938 22.2604 103.562 22.6562C103.188 23.0521 102.854 23.2604 102.562 23.2812C102.271 23.3021 101.844 23.1458 101.281 22.8125C100.74 22.4583 100.188 22.0521 99.625 21.5938C99.0833 21.1146 98.5938 20.6458 98.1562 20.1875C97.7396 19.7292 97.5 19.3958 97.4375 19.1875C97.375 19 97.3333 18.75 97.3125 18.4375C97.3125 18.125 97.3229 17.8125 97.3438 17.5C97.3854 17.1875 97.4479 16.9271 97.5312 16.7188C97.6146 16.4896 97.7188 16.375 97.8438 16.375C97.9688 16.375 98.2188 16.5938 98.5938 17.0312C98.9688 17.4479 99.375 17.9271 99.8125 18.4688C100.25 18.9896 100.677 19.4688 101.094 19.9062C101.51 20.3229 101.812 20.5312 102 20.5312C102.104 20.5312 102.219 20.4583 102.344 20.3125C102.469 20.1458 102.583 19.9583 102.688 19.75C102.792 19.5417 102.875 19.3333 102.938 19.125C103.021 18.8958 103.062 18.7188 103.062 18.5938C103.042 18.4062 102.875 18.1354 102.562 17.7812C102.25 17.4271 101.854 17.0312 101.375 16.5938C100.896 16.1562 100.375 15.6979 99.8125 15.2188C99.25 14.7188 98.7292 14.25 98.25 13.8125C97.7708 13.375 97.375 12.9792 97.0625 12.625C96.75 12.2708 96.5833 12 96.5625 11.8125C96.5417 11.625 96.6042 11.3333 96.75 10.9375C96.8958 10.5208 97.0833 10.0729 97.3125 9.59375C97.5417 9.09375 97.8021 8.58333 98.0938 8.0625C98.4062 7.54167 98.7188 7.0625 99.0312 6.625C99.3438 6.1875 99.6458 5.83333 99.9375 5.5625C100.25 5.27083 100.521 5.125 100.75 5.125C101.208 5.125 101.75 5.25 102.375 5.5C103.021 5.75 103.635 6.0625 104.219 6.4375C104.802 6.79167 105.302 7.16667 105.719 7.5625C106.135 7.95833 106.354 8.3125 106.375 8.625Z" fill="white"/>
</svg>
